<svg id="Capa_1" data-name="Capa 1" xmlns="http://www.w3.org/2000/svg" viewBox="0 0 600 300"><defs><style>.cls-1{font-size:51.61px;font-family:deToks;}.cls-1,.cls-8{fill:#f5f5f5;}.cls-2{letter-spacing:-0.07em;}.cls-3{letter-spacing:-0.01em;}.cls-4{letter-spacing:-0.02em;}.cls-5{letter-spacing:-0.02em;}.cls-6{letter-spacing:-0.02em;}.cls-7{letter-spacing:-0.01em;}</style></defs><text class="cls-1" transform="translate(264.98 121.35)"><tspan class="cls-2">A</tspan><tspan x="26.81" y="0">gi</tspan><tspan class="cls-3" x="67.13" y="0">l</tspan><tspan x="76.58" y="0">e</tspan><tspan class="cls-4" x="0" y="61.93">de</tspan><tspan class="cls-5" x="58.72" y="61.93">v</tspan><tspan class="cls-6" x="85.6" y="61.93">e</tspan><tspan class="cls-3" x="115.04" y="61.93">l</tspan><tspan class="cls-4" x="124.49" y="61.93">opme</tspan><tspan class="cls-7" x="257.04" y="61.93">n</tspan><tspan x="284.13" y="61.93">t</tspan></text><path class="cls-8" d="M76,82.23c-4.66-2.5-9.44-4.78-14.16-7.16-1.83-.92-3.65-1.87-5.44-2.86a112.3,112.3,0,0,0-20,31.24c4.64-2.34,9.25-4.77,13.87-7.14C59,91.86,67.65,87.24,76,82.23Z"/><path class="cls-8" d="M187.35,224.09l-14.71-13.17a15.51,15.51,0,0,0-20.68,0l-24.31,21.76c-10.48,9.39-3.88,26.77,10.19,26.81h.36a109.36,109.36,0,0,0,45.25-9.74A15.49,15.49,0,0,0,187.35,224.09Z"/><path class="cls-8" d="M138.2,35.8A109.33,109.33,0,0,0,84.24,50c11.44,5.72,22.93,11.85,31.57,21.48,3.53,3.94,5.18,8.39,4.47,13.67s-3.51,8.71-7.76,11.88A250.12,250.12,0,0,1,87,113.48C79.33,117.89,71.47,122,63.55,126c-7.63,3.88-15.21,8-23.07,11.39-4.27,1.86-8.58,3.62-12.91,5.34-.07,1.62-.11,3.25-.11,4.89A112,112,0,0,0,79.22,242.3a15.5,15.5,0,0,0,23-8l45.45-131.18c4.81-13.9,24.48-13.9,29.29,0l32,92.32c4.51,13,22.5,14.11,28.57,1.73a112.11,112.11,0,0,0,11.44-49.54C248.93,85.87,199.36,35.8,138.2,35.8Z"/></svg>